# xmcd
# 
# Track frame offsets:
#     150
#     18161
#     36413
#     57790
# 
# Disc length: 863
# 
# Revision: 0
# Processed by: cddbd v1.5.2PL0 Copyright (c) Steve Scherf et al.
# Submitted via: fre:ac v1.0.17
# 
DISCID=29035d04
DTITLE=藍井エイル - ラピスラズリ
DYEAR=0
DGENRE=
TTITLE0=ラピスラズリ
TTITLE1=空蝉アルティメット
TTITLE2=リンドウの花
TTITLE3=ラピスラズリ(TV size ver.)
EXTD=
EXTT0=
EXTT1=
EXTT2=
EXTT3=
PLAYORDER=
